HIERARCHY
ROOT Hips
{
	OFFSET -3.958830 18.904000 13.208200
	CHANNELS 6 Xposition Yposition Zposition Zrotation Yrotation Xrotation 
	JOINT LHipJoint
	{
		OFFSET 0.000000 0.000000 0.000000
		CHANNELS 3 Zrotation Yrotation Xrotation
		JOINT LeftUpLeg
		{
			OFFSET 1.800000 -1.400000 0.085000
			CHANNELS 3 Zrotation Yrotation Xrotation
			JOINT LeftLeg
			{
				OFFSET 2.215000 -6.000000 0.000000
				CHANNELS 3 Zrotation Yrotation Xrotation
				JOINT LeftFoot
				{
					OFFSET 2.500000 -6.900000 0.000000
					CHANNELS 3 Zrotation Yrotation Xrotation
					JOINT LeftToeBase
					{
						OFFSET 0.200000 -0.500000 1.950000
						CHANNELS 3 Zrotation Yrotation Xrotation
						End Site
						{
							OFFSET 0.000000 0.000000 0.000000
						}
					}
				}
			}
		}
	}
	JOINT RHipJoint
	{
		OFFSET 0.000000 0.000000 0.000000
		CHANNELS 3 Zrotation Yrotation Xrotation
		JOINT RightUpLeg
		{
			OFFSET -1.800000 -1.400000 0.085000
			CHANNELS 3 Zrotation Yrotation Xrotation
			JOINT RightLeg
			{
				OFFSET -2.215000 -6.000000 0.000000
				CHANNELS 3 Zrotation Yrotation Xrotation
				JOINT RightFoot
				{
					OFFSET -2.500000 -6.900000 0.000000
					CHANNELS 3 Zrotation Yrotation Xrotation
					JOINT RightToeBase
					{
						OFFSET -0.200000 -0.500000 1.950000
						CHANNELS 3 Zrotation Yrotation Xrotation
						End Site
						{
							OFFSET 0.000000 0.000000 0.000000
						}
					}
				}
			}
		}
	}
	JOINT LowerBack
	{
		OFFSET 0.000000 0.000000 0.000000
		CHANNELS 3 Zrotation Yrotation Xrotation
		JOINT Spine
		{
			OFFSET -0.087000 1.940000 -0.288900
			CHANNELS 3 Zrotation Yrotation Xrotation
			JOINT Spine1
			{
				OFFSET 0.000000 1.950000 0.060000
				CHANNELS 3 Zrotation Yrotation Xrotation
				JOINT Neck
				{
					OFFSET 0.000000 0.000000 0.000000
					CHANNELS 3 Zrotation Yrotation Xrotation
					JOINT Neck1
					{
						OFFSET 0.000000 1.600000 0.340000
						CHANNELS 3 Zrotation Yrotation Xrotation
						JOINT Head
						{
							OFFSET 0.000000 1.667000 -0.240000
							CHANNELS 3 Zrotation Yrotation Xrotation
							End Site
							{
								OFFSET 0.000000 0.000000 0.000000
							}
						}
					}
				}
				JOINT LeftShoulder
				{
					OFFSET 0.000000 0.000000 0.000000
					CHANNELS 3 Zrotation Yrotation Xrotation
					JOINT LeftArm
					{
						OFFSET 2.700000 1.550000 -0.730000
						CHANNELS 3 Zrotation Yrotation Xrotation
						JOINT LeftForeArm
						{
							OFFSET 5.450000 0.000000 0.000000
							CHANNELS 3 Zrotation Yrotation Xrotation
							JOINT LeftHand
							{
								OFFSET 3.450000 0.000000 0.000000
								CHANNELS 3 Zrotation Yrotation Xrotation
								JOINT LeftHandIndex1
								{
									OFFSET 0.750000 0.000000 0.000000
									CHANNELS 3 Zrotation Yrotation Xrotation
									End Site
									{
										OFFSET 0.000000 0.000000 0.000000
									}
								}
							}
						}
					}
				}
				JOINT RightShoulder
				{
					OFFSET 0.000000 0.000000 0.000000
					CHANNELS 3 Zrotation Yrotation Xrotation
					JOINT RightArm
					{
						OFFSET -2.700000 1.550000 -0.730000
						CHANNELS 3 Zrotation Yrotation Xrotation
						JOINT RightForeArm
						{
							OFFSET -5.450000 0.000000 0.000000
							CHANNELS 3 Zrotation Yrotation Xrotation
							JOINT RightHand
							{
								OFFSET -3.450000 0.000000 0.000000
								CHANNELS 3 Zrotation Yrotation Xrotation
								JOINT RightHandIndex1
								{
									OFFSET -0.750000 0.000000 0.000000
									CHANNELS 3 Zrotation Yrotation Xrotation
									End Site
									{
										OFFSET 0.000000 0.000000 0.000000
									}
								}
							}
						}
					}
				}
			}
		}
	}
}
MOTION
Frames: 13
Frame Time: 0.016667
0.740320 16.890300 -2.066540 6.081865 32.595359 3.061363 -14.703103 11.958668 2.671937 4.535920 -5.058520 -16.830288 -4.649960 8.294635 38.205917 -0.911072 7.127295 1.919071 1.271710 1.022260 0.816820 18.885607 -11.889646 2.756165 6.264852 2.803924 -21.114462 -10.813696 -3.499745 47.834697 -1.135291 -6.800074 1.913864 0.950820 0.197610 0.167250 -6.008465 1.760188 -7.464534 24.445986 -3.558851 18.628092 -8.053946 -1.590530 26.364662 -3.325179 3.436865 -9.475906 2.679616 -14.391264 31.670302 5.812360 -11.773340 -26.605740 2.448597 -42.888434 2.225485 -1.471425 -53.080862 3.816346 115.452612 -43.908276 -67.512895 -3.877565 1.959182 0.720230 0.019800 0.070690 0.366450 4.300298 36.247512 8.575893 48.708695 47.742440 -4.075258 30.920774 55.501401 6.968239 1.394623 -1.869772 -0.311060 0.657300 -0.222250 -0.264550 
0.710500 16.855650 -2.064460 5.402024 33.670346 3.178343 -14.712902 11.760033 2.803820 5.987091 -5.704826 -18.593958 -6.053742 9.195719 39.725549 -0.921784 7.563378 1.714095 1.373210 1.140140 0.900820 18.900891 -11.735258 2.828862 6.458253 3.385065 -22.769452 -9.478538 -4.421115 50.270458 -1.233308 -7.147178 1.772176 1.050480 0.150330 0.144700 -6.024980 1.796530 -7.648004 24.509984 -2.754122 18.154439 -6.589673 -1.150978 26.522146 -3.540372 4.032698 -9.712503 3.589609 -15.020808 32.167140 4.974220 -11.677650 -26.993020 2.699033 -43.713336 0.875039 -3.282557 -55.348621 5.723081 112.359056 -45.985999 -65.948978 -3.831716 1.850893 0.742650 0.000350 0.098260 0.374480 4.409438 37.082767 9.267037 48.887963 51.215838 -4.362133 23.508395 51.386552 3.139206 1.310243 -1.872269 -0.319400 0.689070 -0.264010 -0.293070 
0.670230 16.806540 -2.066620 5.161167 33.978059 3.639178 -14.714084 11.525775 2.974871 7.230268 -6.434726 -20.202898 -7.772345 10.206882 40.876397 -0.895684 8.023331 1.543199 1.414420 1.198490 0.913180 18.926364 -11.564163 2.907101 5.878308 4.031429 -25.385554 -7.955207 -5.755566 53.749336 -1.347874 -7.700868 1.582278 1.118680 0.181400 0.106970 -6.020172 1.830082 -7.863918 23.753375 -1.942746 18.198488 -5.674587 -0.206536 25.946530 -3.893177 4.775309 -9.709860 4.725515 -15.320687 32.751529 5.952660 -11.489020 -26.757800 3.508027 -43.819464 -0.914909 -5.091414 -56.825160 7.277154 108.750755 -48.423296 -64.830186 -3.782707 1.727965 0.753140 -0.000690 0.090990 0.400930 4.148859 37.326705 9.717968 49.316995 53.829034 -4.239802 19.943494 46.161096 1.121158 1.313831 -1.859790 -0.358660 0.762290 -0.276310 -0.290740 
0.607570 16.789230 -2.070070 4.198454 34.014709 2.764175 -14.688215 11.424776 2.970763 8.975700 -6.394233 -20.418495 -8.472391 10.697684 40.928996 -0.847756 8.141408 1.468868 1.440010 1.245450 0.911230 18.944098 -11.473453 3.080431 5.088622 4.883828 -26.874231 -4.900777 -7.925647 56.339094 -1.504204 -8.201345 1.419991 1.109600 0.152510 0.124470 -6.096342 1.938559 -8.140985 23.874391 -2.056106 19.853022 -5.910931 0.169558 26.169574 -3.682464 4.907399 -10.674228 4.784194 -15.411614 34.403944 7.526800 -11.413610 -28.543460 3.968074 -44.446569 -2.066342 -1.240018 -55.592469 3.934807 105.383817 -50.645992 -63.194228 -3.687406 1.693800 0.789660 -0.046240 0.155100 0.409010 3.296129 38.329369 11.184466 45.649321 57.131895 -6.221040 13.940164 45.020715 -0.575409 1.263690 -1.764300 -0.314450 0.765080 -0.283840 -0.267720 
0.538890 16.768880 -2.075100 3.355257 33.970571 1.927327 -14.665973 11.374898 2.799094 10.030278 -5.315465 -20.908551 -7.341435 11.041245 41.584158 -0.790239 8.197498 1.445393 1.418410 1.242190 0.842500 18.970107 -11.193538 3.510560 2.465716 7.526937 -29.086249 0.984577 -11.691486 60.310200 -1.732869 -9.243991 1.126203 1.082720 0.172110 0.099360 -6.164913 1.918950 -8.526276 24.254898 -1.785432 22.040357 -6.400189 0.117670 26.056706 -3.136544 4.078068 -11.179974 3.365243 -14.957902 35.357538 9.815370 -12.296940 -29.668920 5.383981 -43.657352 -2.794308 2.455810 -54.710486 0.400551 99.038191 -51.619254 -57.485101 -3.590353 1.733776 0.784190 -0.080860 0.151030 0.427620 0.822511 38.654882 12.084575 39.936282 60.346200 -5.886233 1.515458 45.305765 -3.578087 1.270752 -1.485817 -0.296360 0.785100 -0.274040 -0.220540 
0.482100 16.752160 -2.083410 2.481119 33.678953 1.096143 -14.627027 11.216735 2.664330 11.621507 -4.312930 -21.043508 -7.528741 11.846701 41.566986 -0.754452 8.355390 1.373666 1.380710 1.193420 0.815600 19.021490 -10.874956 4.015326 -1.027419 10.214257 -32.218675 6.619274 -15.991517 64.163549 -2.030945 -10.508930 0.756135 1.040750 0.168130 0.092590 -6.278370 2.016285 -9.030972 25.070358 -1.832415 24.688949 -7.490703 0.150624 24.709851 -2.150635 3.560597 -11.325303 2.527510 -14.413597 36.816366 10.871170 -12.572410 -30.680100 5.846896 -42.627631 -3.136972 7.979971 -53.855193 -4.028588 89.534554 -52.596228 -49.115109 -3.495018 1.829183 0.811460 -0.110170 0.158110 0.410540 -1.345673 38.050286 11.453929 36.245705 62.384155 -3.609470 -8.591783 42.021321 -5.988612 1.484577 -1.156803 -0.299820 0.787380 -0.249340 -0.215310 
0.438650 16.735040 -2.072570 1.099690 33.568471 0.252721 -14.651619 10.944525 2.455833 14.027825 -3.249333 -21.028213 -8.348321 12.834505 40.953245 -0.688020 8.579577 1.315895 1.291920 1.060490 0.762240 19.074466 -10.420310 4.449775 -5.161073 12.627488 -35.519671 13.301346 -21.209506 66.360559 -2.341669 -11.824917 0.418191 0.948780 0.216760 0.094820 -6.196581 2.118923 -9.163182 26.036659 -2.089138 25.682407 -8.390171 0.262405 22.780169 -1.121043 2.712913 -10.097499 1.373653 -13.278787 37.854268 12.042010 -12.836440 -30.445500 6.498047 -42.291200 -2.965901 11.330517 -51.276081 -7.515797 76.479290 -52.498567 -39.227534 -3.458262 2.009324 0.826920 -0.109340 0.128110 0.399220 -3.571509 38.227096 8.551489 31.565019 59.036480 -1.259080 -12.245102 40.361411 -6.110956 1.541297 -0.950605 -0.324500 0.789110 -0.207840 -0.205160 
0.379740 16.738890 -2.068200 0.834453 34.534210 -0.922256 -14.782271 10.928600 2.391861 15.739427 -3.135586 -20.515721 -9.226016 13.340036 40.449029 -0.496984 8.633973 1.298210 1.157330 0.900170 0.717180 18.984518 -9.919824 4.738659 -9.885962 12.940588 -38.508256 18.274476 -26.284020 68.294119 -2.641996 -12.978701 0.134969 0.764740 0.158020 0.106280 -5.815036 1.569962 -9.165652 24.876392 -3.348793 28.638861 -8.529115 0.039031 19.550409 -0.518933 1.800017 -9.463173 -0.389705 -11.932615 40.198907 13.403310 -12.512920 -31.042390 6.739293 -42.992162 -2.289460 15.218768 -45.078251 -11.281949 61.277453 -50.629963 -28.519807 -3.416319 2.318522 0.845600 -0.169720 0.168580 0.340350 -4.909272 39.853262 5.463291 25.141048 52.430966 -2.501083 -8.931141 41.185748 -4.047796 1.564321 -0.968329 -0.273330 0.686140 -0.190240 -0.191900 
0.319940 16.746880 -2.057180 -0.401605 33.651923 -1.370731 -14.772972 10.618104 2.316773 18.119638 -2.779339 -20.121133 -10.829936 14.156923 39.326950 -0.478066 8.828262 1.217517 1.113430 0.812660 0.703890 19.080014 -9.499308 5.090692 -13.885656 13.603941 -42.500400 22.784251 -30.294709 68.978786 -2.843522 -13.832204 -0.083643 0.722210 0.152350 0.107550 -5.840014 1.652545 -9.257422 25.699655 -4.401072 29.330552 -9.673910 -0.077803 18.089222 -0.408519 0.870289 -8.709610 -1.579636 -10.175293 40.223389 13.301190 -12.038520 -29.921390 8.782149 -41.320541 -2.338851 18.305714 -39.924770 -12.423973 47.068767 -44.987476 -18.705425 -3.412577 2.596733 0.863560 -0.173670 0.141760 0.315750 -7.147892 38.776810 3.642736 21.979005 48.606223 -3.568048 -10.357018 43.142022 -4.769546 1.494955 -1.062866 -0.297160 0.649050 -0.165430 -0.215890 
0.291700 16.752730 -2.015320 -1.503274 34.594771 -2.007667 -14.792343 10.500903 2.200824 19.686650 -2.936564 -19.340366 -11.078531 13.901255 38.055480 -0.481555 8.698302 1.272841 1.044110 0.726460 0.706850 19.113970 -9.204407 5.344672 -18.143902 12.157994 -45.315404 27.099715 -34.150908 68.051703 -2.965726 -14.327954 -0.186901 0.653900 0.145700 0.106030 -5.864377 1.526238 -9.259373 26.481834 -6.206080 29.137048 -10.857354 -1.412445 16.736391 0.027265 0.860879 -8.238150 -1.303246 -8.650460 40.544279 12.051990 -10.907700 -29.008580 9.651633 -39.249256 -1.567506 19.796921 -36.256616 -11.606038 35.565926 -35.286370 -10.945554 -3.483523 2.697870 0.865320 -0.159710 0.139360 0.281010 -8.850268 36.160212 2.501282 21.015996 44.959901 -3.986844 -12.705343 46.515937 -6.237406 1.445587 -1.108377 -0.308140 0.626330 -0.153790 -0.234950 
0.250790 16.793500 -1.954170 -2.375404 33.800214 -2.447957 -14.815204 10.621629 2.042927 20.753875 -2.533544 -17.694833 -10.951246 13.323291 35.730769 -0.408212 8.254985 1.445547 0.982380 0.640130 0.733090 19.103473 -8.948943 5.646101 -21.547943 11.545784 -47.512751 31.105701 -35.935817 65.664466 -3.010265 -14.258540 -0.158544 0.519210 0.052040 0.122970 -5.761341 1.187077 -9.288761 26.596493 -7.441963 30.465795 -11.837729 -1.930062 14.945545 0.488957 0.535535 -8.951293 -2.110952 -7.467468 42.516463 11.892490 -9.898000 -29.799700 9.649858 -36.859403 -0.022851 20.253226 -32.395407 -10.096483 28.345272 -26.491578 -6.652245 -3.461469 2.727241 0.903200 -0.227420 0.213460 0.251900 -10.044774 33.924509 2.378307 18.469867 40.064765 -6.236030 -13.652764 51.737538 -7.309248 1.494169 -1.166852 -0.254490 0.529260 -0.191400 -0.243380 
0.224040 16.862190 -1.887340 -3.569720 32.869517 -3.612542 -14.869568 11.039254 1.833103 21.188211 -2.209404 -15.277694 -9.494058 12.006976 33.054128 -0.423081 7.672499 1.668089 0.766470 0.338880 0.696810 19.015418 -8.783067 5.842829 -24.080064 10.486025 -48.294229 34.053892 -36.159955 62.293341 -2.874547 -13.825702 -0.042650 0.272610 0.016320 0.153090 -5.548014 0.491807 -9.242435 26.582672 -9.320810 32.769801 -12.561111 -3.165782 12.986002 1.201853 -0.300730 -10.506129 -4.095710 -5.628822 45.159638 11.046600 -8.833780 -29.801590 7.895692 -34.274638 2.663584 19.501365 -26.301002 -8.544749 24.623979 -21.332676 -4.744650 -3.527727 2.636546 0.970510 -0.246800 0.223030 0.133490 -10.035148 31.881687 2.865812 13.257134 33.527540 -9.762460 -10.589699 60.686671 -6.712652 1.553794 -1.171240 -0.264350 0.429720 -0.103900 -0.291510 
0.226060 16.925740 -1.788420 -5.190957 30.324469 -3.798152 -14.859683 11.347981 1.613773 21.594819 -1.608599 -13.257368 -7.753298 10.794310 30.163280 -0.454038 7.098089 1.924764 0.555360 0.035180 0.651890 19.011756 -8.678659 6.036538 -25.542311 10.337852 -50.068630 34.747548 -35.093689 60.065624 -2.720084 -13.380479 0.082718 0.047880 0.005210 0.152890 -5.474476 0.072840 -9.175633 28.170796 -11.175924 33.155451 -14.700999 -3.962014 10.875064 2.339467 -1.868834 -11.997613 -7.773374 -3.571069 47.416534 9.245190 -8.157360 -29.325630 4.601010 -30.630839 5.193115 16.778560 -20.765938 -6.798352 23.128323 -19.357102 -3.963117 -3.518159 2.521914 1.048560 -0.270390 0.216380 0.050110 -9.370538 29.586223 3.993006 9.071471 27.383038 -11.406686 -5.916015 69.362310 -4.616836 1.625592 -1.180383 -0.314360 0.378280 -0.026390 -0.338020 
